<svg width="33" height="19" viewBox="0 0 33 19" fill="none" xmlns="http://www.w3.org/2000/svg">
<path d="M18.5386 9.43074C18.5386 14.5851 14.3886 18.7635 9.26947 18.7635C4.15038 18.7635 0 14.5842 0 9.43074C0 4.27733 4.15007 0.0976562 9.26947 0.0976562C14.3889 0.0976562 18.5386 4.27638 18.5386 9.43074ZM28.7072 9.43074C28.7072 14.2825 26.6322 18.2171 24.0725 18.2171C21.5128 18.2171 19.4377 14.2825 19.4377 9.43074C19.4377 4.57902 21.5125 0.644364 24.0722 0.644364C26.6319 0.644364 28.7069 4.57776 28.7069 9.43074H28.7072ZM32.8664 9.43074C32.8664 13.7767 32.1367 17.302 31.2364 17.302C30.336 17.302 29.6066 13.7776 29.6066 9.43074C29.6066 5.08385 30.3363 1.55953 31.2364 1.55953C32.1364 1.55953 32.8664 5.08353 32.8664 9.43074" fill="#EC0B26"/>
</svg>
