<svg width="307" height="139" viewBox="0 0 307 139" fill="none" xmlns="http://www.w3.org/2000/svg">
<g clip-path="url(#clip0_118_364)">
<path d="M177.296 58.6232C177.447 57.0803 177.557 55.4203 177.64 53.6226V53.292L177.681 52.3965H192.665" fill="#EC0B26"/>
<path d="M6.76357 121.682H21.7616V88.7783H46.1008V112.803L60.879 106.439C60.9896 105.649 61.0447 104.853 61.044 104.056V52.8164H46.0734V78.7633L41.8874 73.7695H21.7616V52.8164H6.76357V73.7695H2.63944L0 88.7783H6.76357V121.682Z" fill="#EC0B26"/>
<path d="M125.93 55.6891H106.884L108.561 51.5288L94.6762 45.9082L90.7377 55.6891H73.76L72.4472 70.6979H84.6821L72.2753 101.473L91.8649 92.9529L98.7591 75.8501L101.158 81.7944L103.598 87.8489L104.189 87.5872L107.413 86.1889L117.441 82.1319L112.836 70.6979H123.284L125.93 55.6891Z" fill="#EC0B26"/>
<path d="M140.701 72.7296L155.679 66.6751V52.5342L140.701 64.595V72.7296Z" fill="#EC0B26"/>
<path d="M215.355 93.5792C215.37 98.3993 217.287 103.018 220.688 106.426C224.089 109.834 228.698 111.756 233.508 111.77H234.195V111.722H239.694V57.8996H254.665V107.941L250.115 111.77H258.94V126.779H233.508C224.729 126.754 216.317 123.248 210.109 117.027C203.902 110.806 200.403 102.377 200.378 93.5792V57.6172L215.355 61.6673V93.5792Z" fill="#EC0B26"/>
<path d="M11.3001 30.3968V38.559C11.3053 40.0757 11.8456 41.5417 12.8256 42.6976C13.8055 43.8535 15.1618 44.6249 16.6546 44.8752H16.8814L17.6787 41.1006H17.4175C16.7917 41.0298 16.2135 40.7311 15.7929 40.2613C15.3722 39.7915 15.1383 39.1833 15.1355 38.5521V29.4118H19.7752L20.4625 25.5752H7.10037L6.76355 29.4118H12.4686L11.3001 30.3968Z" fill="white"/>
<path d="M23.6519 43.2015H27.4874V34.8051H33.7148V38.7105C33.7148 38.8932 33.6424 39.0684 33.5135 39.1976C33.3846 39.3268 33.2097 39.3993 33.0274 39.3993H32.6082V43.2428H33.0274C34.2216 43.2392 35.3656 42.7617 36.2093 41.9149C37.0531 41.0681 37.5278 39.9209 37.5296 38.7243V25.6372H33.701V32.2772L32.6288 30.996H27.4736V25.5752H23.6382V30.934H22.5865L21.8992 34.7775H23.6244L23.6519 43.2015Z" fill="white"/>
<path d="M41.4199 31.1062H40.3614L39.6741 34.9428H41.4062V37.5602C41.4098 39.0486 42.001 40.475 43.0506 41.5281C44.1001 42.5812 45.5229 43.1753 47.0081 43.1808H52.0259L52.7132 39.3373H47.0219C46.5527 39.3337 46.1037 39.1453 45.7719 38.8128C45.4401 38.4803 45.2521 38.0304 45.2485 37.5602V34.9428H52.0396L52.7269 31.1062H45.2485V29.4118H52.0396L52.7269 25.5752H39.3648L39.028 29.4118H41.4199V31.1062Z" fill="white"/>
<path d="M64.2264 32.1047H63.1335V35.9482H64.2264V38.7034C64.2264 38.886 64.154 39.0613 64.0251 39.1904C63.8962 39.3196 63.7214 39.3922 63.5391 39.3922H63.1266V43.2356H63.5391C64.7338 43.232 65.8786 42.7548 66.7234 41.9082C67.5682 41.0616 68.0445 39.9144 68.0481 38.7172V35.962H73.1757C73.2548 35.962 73.3307 35.9929 73.3872 36.0483C73.4437 36.1036 73.4764 36.179 73.4782 36.2582V39.3922C73.4875 39.4283 73.4875 39.4662 73.4782 39.5024C73.3751 39.6608 72.997 39.6952 72.8321 39.7021C72.3883 39.7082 71.9453 39.6619 71.5123 39.5644C71.004 39.4611 70.5068 39.3089 70.0276 39.1098L69.8008 39.0133L68.3643 42.5813L68.5773 42.6777C70.2122 43.3945 72.0122 43.6471 73.7806 43.4078C75.9664 43.0428 77.3342 41.6927 77.3342 39.3922V34.7359C77.3328 34.1096 77.1073 33.5045 76.6987 33.0306C76.2901 32.5566 75.7254 32.2453 75.1072 32.153C75.987 30.9613 76.7637 29.3358 76.3513 27.8893C76.1244 27.1434 75.6132 26.5172 74.9285 26.1466C74.5134 25.9247 74.0616 25.78 73.595 25.7196C72.8523 25.6209 72.1034 25.5772 71.3543 25.5887H63.7934L63.106 29.4253H64.247L64.2264 32.1047ZM68.0549 29.4115H71.3336C71.5161 29.4094 71.6983 29.4279 71.8766 29.4666C71.9316 29.4666 72.0622 29.5217 72.0897 29.5768C72.1172 29.6319 71.8972 29.997 71.8423 30.0659C71.3744 30.6336 70.7987 31.1025 70.1486 31.4454C69.4984 31.7883 68.7868 31.9984 68.0549 32.0634V29.4115Z" fill="white"/>
<path d="M82.3313 42.9187L86.9504 31.4709L91.5625 42.9187L95.1161 41.4791L90.5452 30.1553H93.219L93.8995 26.3118H89.0262L89.4523 25.2442L85.9056 23.8115L84.8952 26.3118H80.5511L80.2143 30.1553H83.3417L78.7777 41.4791L82.3313 42.9187Z" fill="white"/>
<path d="M87.1857 36.6133L83.3875 40.6074L86.1641 43.2589L89.9623 39.2648L87.1857 36.6133Z" fill="white"/>
<path d="M101.13 30.3968V38.559C101.135 40.0747 101.675 41.5399 102.653 42.6957C103.632 43.8515 104.987 44.6234 106.478 44.8752H106.705L107.509 41.1006H107.241C106.615 41.0298 106.037 40.7311 105.616 40.2613C105.196 39.7915 104.962 39.1833 104.959 38.5521V29.4118H109.599L110.286 25.5752H96.9238L96.587 29.4118H102.292L101.13 30.3968Z" fill="white"/>
<path d="M116.294 30.3968V38.559C116.298 40.0747 116.838 41.5399 117.816 42.6957C118.795 43.8515 120.15 44.6234 121.641 44.8752H121.868L122.672 41.1006H122.404C121.778 41.0298 121.2 40.7311 120.779 40.2613C120.359 39.7915 120.125 39.1833 120.122 38.5521V29.4118H124.762L125.449 25.5752H112.087L111.75 29.4118H117.455L116.294 30.3968Z" fill="white"/>
<path d="M128.35 39.358H127.271L126.941 43.2014H138.681L139.354 39.358H132.178V38.1181H134.495L134.831 34.2816H132.178V25.5752H128.35V34.2816H127.594L126.913 38.1181H128.35V39.358Z" fill="white"/>
<path d="M143.231 31.1062H142.172L141.485 34.9428H143.217V37.5602C143.221 39.0486 143.812 40.475 144.862 41.5281C145.911 42.5812 147.334 43.1753 148.819 43.1808H153.837L154.524 39.3373H148.833C148.364 39.3337 147.915 39.1453 147.583 38.8128C147.251 38.4803 147.063 38.0304 147.059 37.5602V34.9428H153.851L154.538 31.1062H147.059V29.4118H153.851L154.538 25.5752H141.176L140.839 29.4118H143.231V31.1062Z" fill="white"/>
<path d="M166.037 29.8041V38.0696C166.041 39.2687 166.518 40.4177 167.364 41.2656C168.21 42.1135 169.357 42.5914 170.553 42.595H174.354C175.844 42.5932 177.272 41.9999 178.326 40.9452C179.38 39.8904 179.973 38.4601 179.977 36.9676V24.9688H165.57L164.883 28.8191H167.192L166.037 29.8041ZM169.88 28.8191H176.121V37.002C176.117 37.4734 175.928 37.9243 175.595 38.257C175.262 38.5897 174.811 38.7773 174.341 38.7791H170.553C170.371 38.7791 170.196 38.7065 170.067 38.5774C169.938 38.4482 169.866 38.273 169.866 38.0903L169.88 28.8191Z" fill="white"/>
<path d="M182.554 29.804V43.8003L186.404 42.774V35.3626L192.501 36.6782L193.188 32.8829L186.844 31.526L186.404 32.3595V28.8191H193.93L194.611 24.9756H181.778L181.441 28.8191H183.73L182.554 29.804Z" fill="white"/>
<path d="M305.35 22.7164C303.968 20.564 302.058 18.8021 299.803 17.5986L298.044 18.2874C311.488 29.253 302.085 36.7196 292.016 41.796C291.081 36.2856 293.246 29.9625 294.476 26.7458C295.434 24.2867 296.004 21.6935 296.167 19.0589L293.61 20.1058C290.159 26.8808 289.421 34.7213 291.548 42.0233C287.623 43.9725 283.651 45.5568 280.936 46.8448C270.907 51.6044 272.309 60.0215 272.309 60.0215L274.509 59.5049C271.251 53.3539 282.461 47.0239 291.693 42.595C292.795 46.3211 294.552 49.82 296.882 52.9269L299.81 50.9432C295.054 49.2349 292.875 46.0252 292.105 42.4159C295.975 40.5837 299.453 39.0821 301.316 38.0834C307.701 34.6807 308.162 27.3382 305.35 22.7164Z" fill="#EC0B26"/>
<path d="M296.642 17.2195C297.136 17.5915 297.595 17.9565 298.016 18.3147L299.776 17.6259C298.957 17.1658 298.099 16.7786 297.212 16.4688L296.642 17.2195Z" fill="#EC0B26"/>
<path d="M296.16 17.3369L293.851 19.6513C293.762 19.8166 293.693 19.9819 293.61 20.1541L296.167 19.1071C296.204 18.5176 296.202 17.9262 296.16 17.3369Z" fill="#EC0B26"/>
<path d="M304.876 6.33659L304.45 5.31029C304.03 4.27646 303.411 3.33564 302.629 2.54166C301.846 1.74768 300.915 1.11612 299.888 0.683043C298.862 0.249962 297.76 0.0238623 296.646 0.0177073C295.532 0.0115523 294.428 0.225431 293.397 0.64714L242.451 21.4763C240.416 19.5721 238.007 18.1133 235.379 17.1931C232.751 16.2728 229.96 15.9112 227.184 16.1313C215.802 17.068 207.347 27.579 208.365 39.626C208.407 40.1918 208.478 40.755 208.578 41.3136L217.658 37.6285L239.969 38.7995L211.932 50.1302L194.095 57.3418L177.303 64.1334L177.028 64.2436C177.051 65.2004 177.009 66.1577 176.904 67.109L176.801 67.7151C176.621 68.9967 176.319 70.2583 175.901 71.4828C175.249 73.7033 174.097 75.7441 172.533 77.4477C169.68 80.4578 165.274 82.3382 158.415 83.8122V71.7583L143.423 77.8128L120.191 87.2149L110.162 91.2856L106.348 92.9456L94.6212 98.0358L75.0316 106.556L63.6353 111.516L44.5543 119.781L2.73572 137.979L44.5543 120.959L63.2779 113.341L74.0487 108.96L69.5878 120.022L83.4724 125.643L93.3702 101.094L107.351 95.4184L119.552 125.663L133.436 120.043L121.229 89.7358L143.423 80.7264V83.4265H139.148V98.4353H143.423V125.677H158.401V98.4353H178.478C178.788 98.4353 179.086 98.5587 179.305 98.7783C179.524 98.9979 179.647 99.2957 179.647 99.6063V131.291L194.624 127.268V93.662C194.612 91.3445 193.817 89.0995 192.37 87.2923C190.922 85.4851 188.906 84.2221 186.651 83.7089C188.341 80.9579 189.626 77.9768 190.466 74.8579C190.583 74.4308 190.693 74.0107 190.803 73.5836C191.787 69.3732 192.371 65.079 192.549 60.7583L213.458 52.2448C213.265 52.0106 213.087 51.7764 212.901 51.556C213.087 51.797 213.265 52.0312 213.458 52.2448C215.524 54.799 218.178 56.8131 221.191 58.1147C224.204 59.4163 227.487 59.9665 230.759 59.7182C241.529 58.8365 249.668 49.3863 249.647 38.1383L293.638 20.1607C293.72 19.9885 293.789 19.8232 293.878 19.6579L296.188 17.3642C296.226 17.9467 296.226 18.5312 296.188 19.1137L298.064 18.3423C297.606 17.9841 297.148 17.6191 296.69 17.2471L297.288 16.4688C298.174 16.7787 299.032 17.1659 299.852 17.6259L300.278 17.4537C301.308 17.0267 302.245 16.4003 303.034 15.6103C303.823 14.8204 304.449 13.8824 304.876 12.85C305.303 11.8176 305.522 10.711 305.523 9.59336C305.523 8.47576 305.303 7.36907 304.876 6.33659ZM257.717 29.9829L251.847 27.5308L254.301 21.6416L260.171 24.1006L257.717 29.9829ZM269.787 25.0236L263.917 22.5646L266.37 16.6823L272.24 19.1413L269.787 25.0236ZM281.857 20.0574L275.987 17.5984L278.44 11.7161L284.31 14.1751L281.857 20.0574ZM293.954 15.1118L288.084 12.6529L290.517 6.77053L296.387 9.22954L293.954 15.1118Z" fill="#EC0B26"/>
<path d="M176.822 67.7012C176.608 68.9763 176.307 70.2351 175.922 71.4689C176.34 70.2444 176.641 68.9828 176.822 67.7012Z" fill="#EC0B26"/>
</g>
<defs>
<clipPath id="clip0_118_364">
<rect width="307" height="138" fill="white" transform="translate(0 0.0136719)"/>
</clipPath>
</defs>
</svg>
