<svg width="128" height="58" viewBox="0 0 128 58" fill="none" xmlns="http://www.w3.org/2000/svg">
<g clip-path="url(#clip0_118_47)">
<path d="M73.9215 24.6329C73.9846 23.9844 74.0304 23.2868 74.0648 22.5312V22.3922L74.082 22.0159H80.3295" fill="white"/>
<path d="M2.81999 51.1362H9.07326V37.3071H19.2212V47.4046L25.3828 44.7297C25.4289 44.3978 25.4519 44.0631 25.4516 43.728V22.1926H19.2097V33.0978L17.4645 30.999H9.07326V22.1926H2.81999V30.999H1.10048L0 37.3071H2.81999V51.1362Z" fill="white"/>
<path d="M52.5051 23.3999H44.5639L45.2632 21.6513L39.4742 19.2891L37.832 23.3999H30.7534L30.206 29.7079H35.3072L30.1344 42.6425L38.302 39.0615L41.1765 31.8733L42.1767 34.3717L43.194 36.9163L43.4405 36.8063L44.7846 36.2186L48.9658 34.5135L47.0457 29.7079H51.4018L52.5051 23.3999Z" fill="white"/>
<path d="M58.6553 30.5832L64.9 28.0385V22.0952L58.6553 27.1642V30.5832Z" fill="white"/>
<path d="M89.7897 39.3249C89.7958 41.3508 90.5951 43.2919 92.0132 44.7244C93.4313 46.1569 95.3529 46.9643 97.3584 46.9704H97.645V46.9502H99.9377V24.3292H106.179V45.3608L104.282 46.9704H107.962V53.2785H97.3584C93.6981 53.2678 90.1908 51.7943 87.6026 49.1798C85.0144 46.5653 83.5556 43.0223 83.545 39.3249V24.2104L89.7897 25.9127V39.3249Z" fill="white"/>
<path d="M4.7114 12.7696V16.2001C4.71357 16.8376 4.93886 17.4537 5.34743 17.9395C5.75599 18.4254 6.3215 18.7496 6.9439 18.8548H7.03847L7.37091 17.2684H7.262C7.00104 17.2386 6.76 17.113 6.58461 16.9156C6.40922 16.7181 6.31169 16.4625 6.31054 16.1972V12.3556H8.24498L8.53157 10.7432H2.96038L2.81995 12.3556H5.1986L4.7114 12.7696Z" fill="white"/>
<path d="M9.8614 18.1513H11.4605V14.6224H14.057V16.2638C14.057 16.3406 14.0268 16.4142 13.9731 16.4685C13.9193 16.5228 13.8464 16.5533 13.7704 16.5533H13.5956V18.1687H13.7704C14.2683 18.1671 14.7453 17.9665 15.0971 17.6106C15.4489 17.2547 15.6468 16.7725 15.6475 16.2696V10.7692H14.0513V13.5599L13.6042 13.0215H11.4548V10.7432H9.85566V12.9954H9.4172L9.13062 14.6108H9.84994L9.8614 18.1513Z" fill="white"/>
<path d="M17.2695 13.0678H16.8282L16.5416 14.6803H17.2638V15.7804C17.2653 16.4059 17.5118 17.0054 17.9494 17.448C18.387 17.8906 18.9802 18.1403 19.5995 18.1426H21.6915L21.9781 16.5273H19.6052C19.4096 16.5257 19.2224 16.4466 19.084 16.3068C18.9457 16.1671 18.8673 15.978 18.8658 15.7804V14.6803H21.6973L21.9838 13.0678H18.8658V12.3556H21.6973L21.9838 10.7432H16.4126L16.2722 12.3556H17.2695V13.0678Z" fill="white"/>
<path d="M26.7784 13.4874H26.3227V15.1028H26.7784V16.2608C26.7784 16.3375 26.7482 16.4112 26.6945 16.4655C26.6407 16.5198 26.5678 16.5503 26.4918 16.5503H26.3199V18.1656H26.4918C26.99 18.1641 27.4673 17.9635 27.8195 17.6077C28.1717 17.2519 28.3703 16.7697 28.3718 16.2666V15.1086H30.5097C30.5427 15.1086 30.5743 15.1216 30.5979 15.1449C30.6215 15.1681 30.6351 15.1998 30.6358 15.2331V16.5503C30.6397 16.5654 30.6397 16.5814 30.6358 16.5966C30.5928 16.6632 30.4352 16.6776 30.3664 16.6805C30.1814 16.6831 29.9967 16.6636 29.8162 16.6226C29.6042 16.5792 29.3969 16.5153 29.1972 16.4316L29.1026 16.391L28.5036 17.8906L28.5925 17.9311C29.2741 18.2324 30.0246 18.3385 30.7619 18.238C31.6733 18.0846 32.2436 17.5172 32.2436 16.5503V14.5933C32.243 14.33 32.149 14.0757 31.9786 13.8765C31.8082 13.6773 31.5728 13.5465 31.315 13.5077C31.6819 13.0069 32.0057 12.3237 31.8337 11.7157C31.7392 11.4022 31.526 11.139 31.2405 10.9833C31.0675 10.89 30.8791 10.8292 30.6845 10.8038C30.3749 10.7623 30.0626 10.744 29.7503 10.7488H26.5979L26.3113 12.3613H26.787L26.7784 13.4874ZM28.3747 12.3555H29.7417C29.8178 12.3546 29.8937 12.3624 29.9681 12.3787C29.991 12.3787 30.0455 12.4018 30.0569 12.425C30.0684 12.4481 29.9767 12.6016 29.9538 12.6305C29.7587 12.8691 29.5187 13.0662 29.2476 13.2103C28.9765 13.3544 28.6798 13.4427 28.3747 13.4701V12.3555Z" fill="white"/>
<path d="M34.3271 18.0325L36.2529 13.2211L38.1759 18.0325L39.6576 17.4275L37.7518 12.6682H38.8666L39.1503 11.0528H37.1184L37.2961 10.6041L35.8173 10.002L35.3961 11.0528H33.5848L33.4444 12.6682H34.7484L32.8455 17.4275L34.3271 18.0325Z" fill="white"/>
<path d="M36.3511 15.3826L34.7675 17.0613L35.9251 18.1757L37.5088 16.497L36.3511 15.3826Z" fill="white"/>
<path d="M42.1652 12.7696V16.2001C42.1672 16.8372 42.3921 17.453 42.8001 17.9387C43.2081 18.4245 43.773 18.7489 44.3948 18.8548H44.4894L44.8247 17.2684H44.7129C44.452 17.2386 44.2109 17.113 44.0355 16.9156C43.8601 16.7181 43.7626 16.4625 43.7615 16.1972V12.3556H45.6959L45.9825 10.7432H40.4113L40.2709 12.3556H42.6495L42.1652 12.7696Z" fill="white"/>
<path d="M48.4872 12.7696V16.2001C48.4893 16.8372 48.7142 17.453 49.1221 17.9387C49.5301 18.4245 50.095 18.7489 50.7168 18.8548H50.8114L51.1467 17.2684H51.035C50.774 17.2386 50.533 17.113 50.3576 16.9156C50.1822 16.7181 50.0846 16.4625 50.0835 16.1972V12.3556H52.0179L52.3045 10.7432H46.7333L46.5929 12.3556H48.9715L48.4872 12.7696Z" fill="white"/>
<path d="M53.5139 16.5359H53.0639L52.9264 18.1513H57.8212L58.1021 16.5359H55.1102V16.0148H56.0759L56.2164 14.4024H55.1102V10.7432H53.5139V14.4024H53.1986L52.9149 16.0148H53.5139V16.5359Z" fill="white"/>
<path d="M59.7184 13.0678H59.277L58.9905 14.6803H59.7127V15.7804C59.7142 16.4059 59.9606 17.0054 60.3982 17.448C60.8359 17.8906 61.4291 18.1403 62.0483 18.1426H64.1404L64.427 16.5273H62.054C61.8584 16.5257 61.6712 16.4466 61.5329 16.3068C61.3945 16.1671 61.3162 15.978 61.3147 15.7804V14.6803H64.1461L64.4327 13.0678H61.3147V12.3556H64.1461L64.4327 10.7432H58.8615L58.7211 12.3556H59.7184V13.0678Z" fill="white"/>
<path d="M69.2273 12.5205V15.9945C69.2288 16.4984 69.4277 16.9813 69.7805 17.3377C70.1332 17.694 70.6113 17.8949 71.1102 17.8964H72.695C73.316 17.8957 73.9114 17.6463 74.3508 17.203C74.7902 16.7597 75.0377 16.1586 75.0392 15.5313V10.4883H69.0324L68.7458 12.1066H69.7088L69.2273 12.5205ZM70.8293 12.1066H73.4315V15.5457C73.43 15.7439 73.3512 15.9334 73.2123 16.0732C73.0733 16.213 72.8854 16.2919 72.6893 16.2926H71.1102C71.0342 16.2926 70.9613 16.2621 70.9075 16.2078C70.8538 16.1536 70.8236 16.0799 70.8236 16.0031L70.8293 12.1066Z" fill="white"/>
<path d="M76.1139 12.5206V18.4031L77.7188 17.9717V14.8568L80.2608 15.4097L80.5474 13.8146L77.9022 13.2443L77.7188 13.5946V12.1066H80.8569L81.1406 10.4912H75.7901L75.6497 12.1066H76.604L76.1139 12.5206Z" fill="white"/>
<path d="M127.312 9.5418C126.736 8.63717 125.939 7.89668 124.999 7.39087L124.266 7.68036C129.871 12.2891 125.951 15.4272 121.752 17.5608C121.363 15.2448 122.265 12.5873 122.778 11.2353C123.178 10.2018 123.415 9.11189 123.483 8.00459L122.417 8.44461C120.978 11.2921 120.671 14.5873 121.558 17.6563C119.921 18.4756 118.265 19.1414 117.133 19.6827C112.951 21.6831 113.536 25.2208 113.536 25.2208L114.453 25.0036C113.095 22.4185 117.769 19.758 121.618 17.8966C122.077 19.4626 122.81 20.9332 123.781 22.239L125.002 21.4052C123.019 20.6873 122.111 19.3382 121.79 17.8213C123.403 17.0513 124.853 16.4202 125.63 16.0004C128.292 14.5703 128.484 11.4843 127.312 9.5418Z" fill="white"/>
<path d="M123.681 7.23155C123.887 7.38788 124.079 7.54132 124.254 7.69186L124.988 7.40236C124.646 7.20899 124.289 7.04626 123.919 6.91602L123.681 7.23155Z" fill="white"/>
<path d="M123.481 7.28076L122.518 8.25346C122.48 8.32293 122.452 8.39241 122.417 8.46478L123.483 8.02476C123.499 7.77697 123.498 7.52842 123.481 7.28076Z" fill="white"/>
<path d="M127.114 2.65753L126.937 2.22618C126.762 1.79167 126.504 1.39626 126.177 1.06256C125.851 0.728853 125.463 0.463417 125.035 0.281397C124.607 0.0993776 124.147 0.00435015 123.683 0.00176327C123.219 -0.000823612 122.758 0.0890674 122.328 0.266308L101.087 9.0206C100.238 8.22026 99.2344 7.60717 98.1385 7.2204C97.0426 6.83363 95.879 6.68165 94.7218 6.77413C89.976 7.16784 86.451 11.5855 86.8751 16.6487C86.8929 16.8865 86.9226 17.1232 86.964 17.358L90.7498 15.8092L100.052 16.3013L88.3625 21.0635L80.9257 24.0945L73.9244 26.9489L73.8098 26.9952C73.8191 27.3974 73.8019 27.7997 73.7582 28.1995L73.7152 28.4543C73.64 28.9929 73.5143 29.5232 73.3398 30.0378C73.0679 30.9711 72.5875 31.8288 71.9355 32.5448C70.7462 33.8099 68.9092 34.6002 66.0491 35.2197V30.1536L59.7987 32.6983L50.1121 36.6498L45.9309 38.3607L44.3403 39.0584L39.4512 41.1978L31.2835 44.7788L26.532 46.8632L18.5764 50.3371L1.14062 57.9855L18.5764 50.8321L26.383 47.6303L30.8737 45.7891L29.0138 50.4384L34.8028 52.8007L38.9296 42.4831L44.7587 40.0977L49.8456 52.8093L55.6346 50.4471L50.5449 37.7094L59.7987 33.9228V35.0576H58.0161V41.3657H59.7987V52.8151H66.0433V41.3657H74.4145C74.5437 41.3657 74.6676 41.4175 74.759 41.5098C74.8503 41.6021 74.9017 41.7273 74.9017 41.8578V55.1745L81.1463 53.4839V39.3595C81.1412 38.3855 80.8098 37.4419 80.2062 36.6824C79.6026 35.9228 78.7622 35.392 77.822 35.1763C78.5266 34.0201 79.0623 32.7672 79.4125 31.4563C79.4612 31.2768 79.5071 31.1002 79.5529 30.9208C79.9632 29.1512 80.207 27.3463 80.2808 25.5304L88.9987 21.9523C88.9185 21.8538 88.844 21.7554 88.7666 21.6628C88.844 21.7641 88.9185 21.8625 88.9987 21.9523C89.8602 23.0258 90.9665 23.8723 92.2228 24.4194C93.4791 24.9664 94.8479 25.1976 96.2121 25.0933C100.703 24.7227 104.096 20.7509 104.087 16.0234L122.429 8.46766C122.463 8.39528 122.492 8.32581 122.529 8.25633L123.492 7.29232C123.508 7.53715 123.508 7.78278 123.492 8.02762L124.274 7.70339C124.083 7.55286 123.892 7.39943 123.701 7.24311L123.951 6.91598C124.32 7.04622 124.678 7.20896 125.02 7.40232L125.197 7.32995C125.627 7.15045 126.017 6.88719 126.346 6.55519C126.675 6.22319 126.936 5.82896 127.114 5.39504C127.292 4.96113 127.384 4.49603 127.384 4.02631C127.384 3.5566 127.292 3.09147 127.114 2.65753ZM107.452 12.5958L105.004 11.5652L106.028 9.09008L108.475 10.1236L107.452 12.5958ZM112.484 10.5115L110.037 9.47799L111.06 7.00572L113.507 8.03921L112.484 10.5115ZM117.517 8.42424L115.069 7.39075L116.092 4.91847L118.54 5.95196L117.517 8.42424ZM122.561 6.34567L120.113 5.31219L121.128 2.83991L123.575 3.8734L122.561 6.34567Z" fill="white"/>
<path d="M73.7238 28.4485C73.6347 28.9844 73.5093 29.5135 73.3484 30.032C73.5229 29.5174 73.6486 28.9871 73.7238 28.4485Z" fill="white"/>
</g>
<defs>
<clipPath id="clip0_118_47">
<rect width="128" height="58" fill="white"/>
</clipPath>
</defs>
</svg>
