<svg width="26" height="21" viewBox="0 0 26 21" fill="none" xmlns="http://www.w3.org/2000/svg">
<path d="M21.8146 2.43243C21.8075 2.41883 21.7956 2.40816 21.7812 2.40235C20.1133 1.65077 18.3532 1.11483 16.545 0.807955C16.5285 0.804956 16.5116 0.80712 16.4964 0.814139C16.4813 0.821159 16.4689 0.832678 16.4608 0.847057C16.2211 1.27429 16.0036 1.71313 15.8089 2.1619C13.8597 1.8713 11.877 1.8713 9.92781 2.1619C9.73188 1.71199 9.51083 1.27304 9.26565 0.847057C9.25724 0.83299 9.24471 0.821737 9.2297 0.814763C9.21468 0.807788 9.19788 0.805416 9.18147 0.807955C7.37301 1.11419 5.6128 1.65017 3.94512 2.4024C3.93085 2.40834 3.9188 2.41849 3.91065 2.43144C0.575626 7.32292 -0.337963 12.0941 0.110213 16.8063C0.111474 16.8178 0.115086 16.829 0.120836 16.8391C0.126585 16.8493 0.134355 16.8582 0.143681 16.8653C2.08563 18.2775 4.25773 19.3555 6.56728 20.0532C6.58354 20.0579 6.60091 20.0577 6.61705 20.0525C6.63318 20.0473 6.64731 20.0374 6.65754 20.0241C7.15358 19.3612 7.59311 18.6593 7.97165 17.9254C7.97686 17.9154 7.97983 17.9043 7.98037 17.893C7.98091 17.8818 7.97901 17.8705 7.9748 17.86C7.97059 17.8495 7.96416 17.84 7.95593 17.8321C7.9477 17.8242 7.93787 17.8181 7.92707 17.8142C7.23397 17.5538 6.56296 17.2398 5.92035 16.8752C5.90867 16.8685 5.89887 16.859 5.8918 16.8477C5.88473 16.8363 5.88062 16.8235 5.87982 16.8102C5.87902 16.7969 5.88156 16.7836 5.88721 16.7716C5.89287 16.7595 5.90147 16.749 5.91225 16.7409C6.04709 16.6417 6.18202 16.5385 6.31077 16.4342C6.32221 16.425 6.33605 16.4191 6.35074 16.4171C6.36543 16.4152 6.38037 16.4173 6.3939 16.4232C10.6039 18.3103 15.1618 18.3103 19.322 16.4232C19.3356 16.4169 19.3507 16.4145 19.3656 16.4163C19.3805 16.418 19.3946 16.4239 19.4062 16.4333C19.535 16.5375 19.6699 16.6417 19.8057 16.7409C19.8166 16.7489 19.8252 16.7593 19.831 16.7714C19.8367 16.7834 19.8394 16.7966 19.8387 16.8099C19.838 16.8232 19.834 16.8361 19.827 16.8475C19.82 16.8589 19.8103 16.8684 19.7986 16.8752C19.1575 17.2428 18.4859 17.5566 17.791 17.8132C17.7802 17.8173 17.7704 17.8235 17.7622 17.8315C17.754 17.8395 17.7477 17.8491 17.7435 17.8597C17.7394 17.8703 17.7376 17.8816 17.7382 17.893C17.7389 17.9043 17.7419 17.9153 17.7472 17.9254C18.1321 18.6552 18.571 19.3563 19.0603 20.0229C19.0702 20.0366 19.0843 20.0469 19.1005 20.0523C19.1167 20.0577 19.1342 20.0579 19.1506 20.053C21.4643 19.3577 23.6402 18.2797 25.5845 16.8653C25.594 16.8586 25.6019 16.8499 25.6077 16.8398C25.6134 16.8298 25.617 16.8187 25.618 16.8073C26.1546 11.3595 24.7197 6.62743 21.8146 2.43243ZM8.60039 13.9371C7.33286 13.9371 6.28846 12.7947 6.28846 11.3916C6.28846 9.98862 7.3126 8.84613 8.60039 8.84613C9.89823 8.84613 10.9325 9.99855 10.9123 11.3916C10.9123 12.7947 9.88808 13.9371 8.60039 13.9371ZM17.1483 13.9371C15.8808 13.9371 14.8364 12.7947 14.8364 11.3916C14.8364 9.98862 15.8605 8.84613 17.1483 8.84613C18.4462 8.84613 19.4804 9.99855 19.4602 11.3916C19.4602 12.7947 18.4462 13.9371 17.1483 13.9371Z" fill="#EC0B26"/>
</svg>
