<svg width="24" height="21" viewBox="0 0 24 21" fill="none" xmlns="http://www.w3.org/2000/svg">
<path d="M24 2.48825C23.1013 2.91496 22.148 3.19505 21.1719 3.31921C22.1887 2.6661 22.9693 1.63188 23.3369 0.39961C22.3704 1.01432 21.3129 1.44743 20.2103 1.68021C19.312 0.654624 18.0324 0.0136719 16.6162 0.0136719C13.8968 0.0136719 11.6921 2.37652 11.6921 5.2908C11.6921 5.70447 11.7357 6.10719 11.8196 6.49353C7.72744 6.27338 4.09931 4.17247 1.67072 0.979672C1.24697 1.75908 1.00416 2.6657 1.00416 3.6327C1.00416 5.46362 1.8735 7.07881 3.19463 8.02522C2.4127 7.99897 1.64798 7.77263 0.964313 7.36508C0.964031 7.38718 0.964031 7.40929 0.964031 7.43149C0.964031 9.98837 2.66128 12.1213 4.91372 12.6061C4.18864 12.8175 3.42809 12.8484 2.69016 12.6966C3.31669 14.7931 5.13516 16.3188 7.28972 16.3615C5.60456 17.7769 3.48141 18.6206 1.17459 18.6206C0.777094 18.6206 0.385219 18.5956 0 18.5468C2.17903 20.0441 4.76719 20.9178 7.54781 20.9178C16.6047 20.9178 21.5573 12.8764 21.5573 5.90281C21.5573 5.67392 21.5526 5.44634 21.543 5.22006C22.507 4.47319 23.339 3.54812 24 2.48825" fill="#EC0B26"/>
</svg>
